<?xml version="1.0" encoding="utf-8"?>
<!-- Generator: Adobe Illustrator 16.0.0, SVG Export Plug-In . SVG Version: 6.00 Build 0)  -->
<!DOCTYPE svg PUBLIC "-//W3C//DTD SVG 1.1//EN" "http://www.w3.org/Graphics/SVG/1.1/DTD/svg11.dtd">
<svg version="1.1" id="Calque_1" xmlns="http://www.w3.org/2000/svg" xmlns:xlink="http://www.w3.org/1999/xlink" x="0px" y="0px"
	 width="926px" height="926px" viewBox="0 0 926 926" enable-background="new 0 0 926 926" xml:space="preserve">
<g id="freepik--background-simple--inject-47">
	<path fill="#92E3A9" d="M759.69,533.524c13.279-109.602-51.041-251.15-117.713-307.581
		c-120.38-101.86-220.389-75.932-298.172-33.336c-77.784,42.596-88.896,172.236-142.604,233.352s-118.528,155.568-37.04,229.648
		c81.488,74.08,181.496,16.668,266.688,7.407c85.191-9.26,198.164,24.076,259.279-12.964
		C732.799,624.124,753.764,581.973,759.69,533.524z"/>
	<path opacity="0.7" fill="#FFFFFF" enable-background="new    " d="M759.69,533.524c13.279-109.602-51.041-251.15-117.713-307.581
		c-120.38-101.86-220.389-75.932-298.172-33.336c-77.784,42.596-88.896,172.236-142.604,233.352s-118.528,155.568-37.04,229.648
		c81.488,74.08,181.496,16.668,266.688,7.407c85.191-9.26,198.164,24.076,259.279-12.964
		C732.799,624.124,753.764,581.973,759.69,533.524z"/>
</g>
<g id="freepik--Shadow--inject-47">
	<ellipse fill="#92E3A9" cx="378.067" cy="738.022" rx="158.346" ry="30.558"/>
	<ellipse opacity="0.5" fill="#FFFFFF" enable-background="new    " cx="378.067" cy="738.022" rx="158.346" ry="30.558"/>
</g>
<g id="freepik--Plants--inject-47">
	<path fill="#92E3A9" d="M611.309,484.724c0,0-1.001-5.37-1.111-5.704c-1.241-3.833-5.89-10.519-10.408-10.501
		c-2.955,0.086-5.281,2.55-5.196,5.505c0.006,0.19,0.021,0.381,0.048,0.57c0.333,3.167,3.185,5.871,5.759,7.408
		C603.419,483.854,611.309,484.724,611.309,484.724z"/>
	<path fill="#92E3A9" d="M620.05,448.555c-4.241,1.537-6.371,9.39-6.223,13.427c0,0.352,0.814,5.76,0.889,5.723l0,0
		c-0.333,1.241-0.686,2.574-1.056,4.037c-0.63,2.704-1.333,5.778-1.852,9.149c-0.624,3.646-1.025,7.325-1.204,11.02
		c-0.238,4.127-0.103,8.268,0.407,12.371c0,0,0,0.111,0,0.147c-0.556-1.203-2.223-4.5-2.389-4.74
		c-2.204-3.371-8.464-8.575-12.816-7.408c-2.789,0.945-4.284,3.975-3.338,6.764c0.051,0.149,0.107,0.296,0.171,0.44
		c1.148,2.963,4.612,4.815,7.52,5.648c3.26,0.926,10.538-0.166,11.112-0.259c0.625,4.165,1.522,8.285,2.686,12.334
		c0.666,2.352,1.407,4.723,2.185,7.074c-0.5-1.019-0.981-1.852-1.056-2.056c-2.203-3.37-8.463-8.593-12.815-7.407
		c-2.833,0.88-4.415,3.89-3.535,6.723c0.053,0.169,0.113,0.336,0.183,0.5c1.148,2.963,4.611,4.815,7.52,5.648
		c2.907,0.833,9.148,0,10.797-0.223c0.315,0.908,0.611,1.853,0.926,2.704c1.482,4.315,2.982,8.612,4.334,12.964
		c0.481,1.5,0.889,3,1.314,4.501c-0.463-0.908-0.852-1.667-0.926-1.853c-2.203-3.37-8.463-8.593-12.815-7.408
		c-2.818,0.856-4.409,3.836-3.553,6.654c0.057,0.188,0.123,0.371,0.2,0.551c1.148,2.981,4.611,4.833,7.52,5.556
		c2.907,0.723,8.556,0.111,10.501-0.167c0.389,1.537,0.777,3.093,1.074,4.611c0.185,1.037,0.426,2.02,0.556,3.074l0.444,3.094
		c0.203,1.963,0.426,4,0.574,5.926c0.11,1.353,0.185,2.63,0.277,3.908c-0.444-1.5-1.407-4.408-1.519-4.648
		c-1.596-3.164-3.974-5.867-6.908-7.853c-0.158-0.363-0.35-0.711-0.574-1.037c-1.604-2.471-4.907-3.173-7.378-1.569
		c-0.164,0.106-0.322,0.223-0.475,0.347c-3.426,2.944-2.574,11.112-1,14.816c0,0.222,1.371,2.481,2.186,3.889
		c-0.611-0.759-1.186-1.5-1.852-2.277c-1.26-1.52-2.556-3.02-3.945-4.631c-0.686-0.759-1.389-1.537-2.111-2.296
		c-0.722-0.76-1.519-1.519-2.278-2.297c-1.852-1.74-3.703-3.426-5.686-5.074c1.334-1.093,6.057-5.074,7.408-7.778
		c1.353-2.704,2.315-6.501,0.907-9.353c-1.222-2.691-4.395-3.883-7.086-2.66c-0.167,0.075-0.33,0.16-0.488,0.252
		c-3.834,2.408-4.223,10.538-3.223,14.446c0,0.24,1.093,2.963,1.686,4.444c-1.204-0.981-2.39-1.963-3.611-2.926
		c-3.574-2.76-7.278-5.445-10.945-8.131l-3.371-2.481c0.481-0.389,6.186-5,7.704-8.037c1.353-2.686,2.334-6.482,0.908-9.261
		c-1.201-2.678-4.347-3.876-7.025-2.675c-0.188,0.085-0.372,0.18-0.55,0.286c-3.833,2.389-4.204,10.52-3.222,14.427
		c0,0.297,1.555,4.223,1.981,5.204c-2.445-1.852-4.89-3.704-7.204-5.556c-3.164-2.569-6.152-5.348-8.945-8.315
		c0.222-0.167,6.204-4.963,7.76-8.057c1.352-2.686,2.314-6.5,0.907-9.353c-1.222-2.691-4.395-3.882-7.086-2.66
		c-0.167,0.076-0.33,0.16-0.488,0.253c-3.834,2.407-4.223,10.538-3.223,14.445c0,0.26,1.185,3.241,1.759,4.648l-0.222,0.13
		c-2.762-3.048-5.241-6.339-7.408-9.834c-1.204-1.852-2.241-3.797-3.223-5.667c1.204-0.778,6.667-4.39,8.371-7.02
		s3.019-6.204,1.853-9.26c-0.908-2.803-3.915-4.339-6.718-3.432c-0.185,0.061-0.365,0.13-0.542,0.209
		c-4.075,1.963-5.334,10.02-4.778,14.001c0,0.223,0.574,2.39,1,3.964c-0.426-0.834-0.89-1.704-1.278-2.519
		c-1.481-3.074-2.648-5.982-3.704-8.575c-0.573-1.463-1.056-2.814-1.5-4.074c0.797-1.37,3.871-6.982,4.167-10.038
		c0.297-3.056-0.166-6.908-2.519-9.056c-2.121-2.074-5.521-2.035-7.595,0.086c-0.123,0.126-0.24,0.258-0.351,0.396
		c-2.686,3.704-0.11,11.353,2.223,14.631c0.186,0.296,3.853,4.37,3.908,4.296l0,0c0.407,1.223,0.833,2.519,1.352,3.945
		c0.963,2.611,2.074,5.556,3.5,8.667c1.495,3.373,3.184,6.656,5.057,9.834c2.091,3.571,4.495,6.949,7.186,10.094l0.111,0.111
		c-1.13-0.686-4.353-2.519-4.612-2.63c-3.703-1.593-11.797-2.5-14.815,0.907c-1.882,2.267-1.569,5.629,0.697,7.511
		c0.155,0.129,0.318,0.25,0.488,0.36c2.593,1.852,6.5,1.463,9.371,0.556c3.241-1.019,8.704-5.945,9.148-6.353
		c2.809,3.141,5.828,6.086,9.038,8.815c1.852,1.593,3.704,3.148,5.723,4.686l-2.019-1.13c-3.704-1.593-11.798-2.481-14.816,0.927
		c-1.877,2.257-1.569,5.607,0.688,7.484c0.159,0.133,0.325,0.255,0.498,0.367c2.593,1.853,6.5,1.482,9.371,0.574
		c2.87-0.907,7.667-5.037,8.908-6.148l2.241,1.76c3.703,2.759,7.26,5.556,10.741,8.334c1.223,0.981,2.389,2,3.556,3.019
		c-0.87-0.5-1.63-0.926-1.741-0.963c-3.703-1.593-11.797-2.5-14.815,0.907c-1.879,2.269-1.563,5.631,0.705,7.51
		c0.147,0.123,0.302,0.237,0.462,0.343c2.611,1.852,6.519,1.481,9.39,0.574c2.87-0.907,7.186-4.63,8.667-5.945
		c1.186,1.074,2.352,2.167,3.444,3.26c0.723,0.76,1.464,1.444,2.148,2.26l2.074,2.333c1.26,1.537,2.574,3.111,3.704,4.63
		c0.834,1.056,1.611,2.074,2.39,3.111c-1.204-1-3.611-2.907-3.834-3.056c-3.408-2.13-11.278-4.241-14.724-1.333
		c-2.199,1.99-2.368,5.387-0.377,7.586c0.119,0.132,0.245,0.258,0.377,0.378c2.278,2.203,6.204,2.444,9.26,1.981
		c3.278-0.519,9.261-4.371,9.927-4.871c1.297,1.704,2.537,3.39,3.704,4.982c4.001,5.556,7.112,10.26,9.26,13.593l0.223,0.353
		l2.76-1.353c-0.148-0.203-0.278-0.426-0.444-0.647c-2.223-3.334-5.464-8.057-9.612-13.538c-1.314-1.741-2.741-3.575-4.241-5.427
		c1.537-1.685,2.972-3.459,4.297-5.315c3.468,0.917,7.044,1.353,10.631,1.297c0.129,2.13,0.259,4.204,0.333,6.167
		c0.277,6.815,0.259,12.482,0.185,16.445v0.464l3.038-1.464c0-3.944-0.148-9.26-0.556-15.575c-0.13-2.167-0.315-4.481-0.537-6.853
		c0.852-0.222,7.723-1.981,10.315-4.056s4.815-4.927,4.741-8.111c0.015-2.956-2.369-5.365-5.325-5.38
		c-0.188-0.001-0.377,0.008-0.564,0.027c-4.463,0.574-8.223,7.797-8.964,11.76c0,0.241-0.222,2.815-0.314,4.464
		c-0.093-0.981-0.186-1.853-0.277-2.908c-0.204-1.981-0.464-3.944-0.723-6.056l-0.5-3.074c-0.148-1.037-0.444-2.111-0.648-3.167
		c-0.537-2.444-1.223-4.908-1.852-7.408c1.722-0.186,7.853-0.907,10.482-2.407s5.556-4.148,5.907-7.297
		c0.475-2.907-1.498-5.648-4.405-6.123c-0.197-0.032-0.396-0.053-0.595-0.063c-4.519-0.111-9.26,6.463-10.649,10.26
		c0,0.241-0.722,3.074-1.056,4.648c-0.444-1.481-0.889-2.963-1.389-4.444c-1.463-4.26-3.056-8.538-4.648-12.816
		c-0.481-1.296-0.944-2.611-1.426-3.926c0.61,0,7.926-0.76,10.853-2.445c2.611-1.5,5.556-4.13,5.926-7.297
		c0.465-2.919-1.525-5.662-4.444-6.127c-0.185-0.028-0.369-0.049-0.556-0.059c-4.519-0.111-9.26,6.464-10.649,10.261
		c-0.11,0.296-1.037,4.389-1.222,5.426c-1.037-2.87-2.037-5.76-2.927-8.648c-1.21-3.886-2.168-7.845-2.87-11.854
		c0.296,0,7.908-0.722,10.927-2.463c2.611-1.5,5.556-4.13,5.908-7.297c0.474-2.907-1.499-5.648-4.406-6.122
		c-0.196-0.032-0.396-0.054-0.595-0.063c-4.5-0.111-9.26,6.464-10.648,10.278c0,0.241-0.778,3.353-1.093,4.834h-0.26
		c-0.58-4.06-0.809-8.161-0.685-12.26c0-2.241,0.222-4.408,0.444-6.501c1.426,0,7.981,0,10.853-1.241
		c2.87-1.24,5.944-3.5,6.686-6.593c0.777-2.862-0.914-5.813-3.776-6.591c-0.171-0.046-0.345-0.084-0.521-0.113
		c-4.463-0.611-9.964,5.408-11.704,9.038c-0.093,0.203-0.834,2.314-1.353,3.87c0.111-0.944,0.204-1.852,0.334-2.814
		c0.463-3.39,1.092-6.464,1.666-9.168c0.334-1.556,0.686-2.944,1-4.223c1.427-0.722,7.075-3.704,9.02-6.093
		c1.944-2.39,3.704-5.853,2.89-8.945c-0.61-2.893-3.45-4.742-6.342-4.133C620.303,448.486,620.176,448.519,620.05,448.555z"/>
	<path fill="#92E3A9" d="M538.432,518.152c3.538-0.147,10.594-3.704,10.594-3.704s-3.797-3.907-4.074-4.13
		c-3.148-2.519-10.724-5.556-14.482-3.019c-2.408,1.697-2.984,5.024-1.287,7.433c0.111,0.159,0.232,0.312,0.36,0.457
		C531.524,517.578,535.432,518.264,538.432,518.152z"/>
	<g opacity="0.5">
		<path fill="#FFFFFF" d="M611.309,484.724c0,0-1.001-5.37-1.111-5.704c-1.241-3.833-5.89-10.519-10.408-10.501
			c-2.955,0.086-5.281,2.55-5.196,5.505c0.006,0.19,0.021,0.381,0.048,0.57c0.333,3.167,3.185,5.871,5.759,7.408
			C603.419,483.854,611.309,484.724,611.309,484.724z"/>
		<path fill="#FFFFFF" d="M620.05,448.555c-4.241,1.537-6.371,9.39-6.223,13.427c0,0.352,0.814,5.76,0.889,5.723l0,0
			c-0.333,1.241-0.686,2.574-1.056,4.037c-0.63,2.704-1.333,5.778-1.852,9.149c-0.624,3.646-1.025,7.325-1.204,11.02
			c-0.238,4.127-0.103,8.268,0.407,12.371c0,0,0,0.111,0,0.147c-0.556-1.203-2.223-4.5-2.389-4.74
			c-2.204-3.371-8.464-8.575-12.816-7.408c-2.789,0.945-4.284,3.975-3.338,6.764c0.051,0.149,0.107,0.296,0.171,0.44
			c1.148,2.963,4.612,4.815,7.52,5.648c3.26,0.926,10.538-0.166,11.112-0.259c0.625,4.165,1.522,8.285,2.686,12.334
			c0.666,2.352,1.407,4.723,2.185,7.074c-0.5-1.019-0.981-1.852-1.056-2.056c-2.203-3.37-8.463-8.593-12.815-7.407
			c-2.833,0.88-4.415,3.89-3.535,6.723c0.053,0.169,0.113,0.336,0.183,0.5c1.148,2.963,4.611,4.815,7.52,5.648
			c2.907,0.833,9.148,0,10.797-0.223c0.315,0.908,0.611,1.853,0.926,2.704c1.482,4.315,2.982,8.612,4.334,12.964
			c0.481,1.5,0.889,3,1.314,4.501c-0.463-0.908-0.852-1.667-0.926-1.853c-2.203-3.37-8.463-8.593-12.815-7.408
			c-2.818,0.856-4.409,3.836-3.553,6.654c0.057,0.188,0.123,0.371,0.2,0.551c1.148,2.981,4.611,4.833,7.52,5.556
			c2.907,0.723,8.556,0.111,10.501-0.167c0.389,1.537,0.777,3.093,1.074,4.611c0.185,1.037,0.426,2.02,0.556,3.074l0.444,3.094
			c0.203,1.963,0.426,4,0.574,5.926c0.11,1.353,0.185,2.63,0.277,3.908c-0.444-1.5-1.407-4.408-1.519-4.648
			c-1.596-3.164-3.974-5.867-6.908-7.853c-0.158-0.363-0.35-0.711-0.574-1.037c-1.604-2.471-4.907-3.173-7.378-1.569
			c-0.164,0.106-0.322,0.223-0.475,0.347c-3.426,2.944-2.574,11.112-1,14.816c0,0.222,1.371,2.481,2.186,3.889
			c-0.611-0.759-1.186-1.5-1.852-2.277c-1.26-1.52-2.556-3.02-3.945-4.631c-0.686-0.759-1.389-1.537-2.111-2.296
			c-0.722-0.76-1.519-1.519-2.278-2.297c-1.852-1.74-3.703-3.426-5.686-5.074c1.334-1.093,6.057-5.074,7.408-7.778
			c1.353-2.704,2.315-6.501,0.907-9.353c-1.222-2.691-4.395-3.883-7.086-2.66c-0.167,0.075-0.33,0.16-0.488,0.252
			c-3.834,2.408-4.223,10.538-3.223,14.446c0,0.24,1.093,2.963,1.686,4.444c-1.204-0.981-2.39-1.963-3.611-2.926
			c-3.574-2.76-7.278-5.445-10.945-8.131l-3.371-2.481c0.481-0.389,6.186-5,7.704-8.037c1.353-2.686,2.334-6.482,0.908-9.261
			c-1.201-2.678-4.347-3.876-7.025-2.675c-0.188,0.085-0.372,0.18-0.55,0.286c-3.833,2.389-4.204,10.52-3.222,14.427
			c0,0.297,1.555,4.223,1.981,5.204c-2.445-1.852-4.89-3.704-7.204-5.556c-3.164-2.569-6.152-5.348-8.945-8.315
			c0.222-0.167,6.204-4.963,7.76-8.057c1.352-2.686,2.314-6.5,0.907-9.353c-1.222-2.691-4.395-3.882-7.086-2.66
			c-0.167,0.076-0.33,0.16-0.488,0.253c-3.834,2.407-4.223,10.538-3.223,14.445c0,0.26,1.185,3.241,1.759,4.648l-0.222,0.13
			c-2.762-3.048-5.241-6.339-7.408-9.834c-1.204-1.852-2.241-3.797-3.223-5.667c1.204-0.778,6.667-4.39,8.371-7.02
			s3.019-6.204,1.853-9.26c-0.908-2.803-3.915-4.339-6.718-3.432c-0.185,0.061-0.365,0.13-0.542,0.209
			c-4.075,1.963-5.334,10.02-4.778,14.001c0,0.223,0.574,2.39,1,3.964c-0.426-0.834-0.89-1.704-1.278-2.519
			c-1.481-3.074-2.648-5.982-3.704-8.575c-0.573-1.463-1.056-2.814-1.5-4.074c0.797-1.37,3.871-6.982,4.167-10.038
			c0.297-3.056-0.166-6.908-2.519-9.056c-2.121-2.074-5.521-2.035-7.595,0.086c-0.123,0.126-0.24,0.258-0.351,0.396
			c-2.686,3.704-0.11,11.353,2.223,14.631c0.186,0.296,3.853,4.37,3.908,4.296l0,0c0.407,1.223,0.833,2.519,1.352,3.945
			c0.963,2.611,2.074,5.556,3.5,8.667c1.495,3.373,3.184,6.656,5.057,9.834c2.091,3.571,4.495,6.949,7.186,10.094l0.111,0.111
			c-1.13-0.686-4.353-2.519-4.612-2.63c-3.703-1.593-11.797-2.5-14.815,0.907c-1.882,2.267-1.569,5.629,0.697,7.511
			c0.155,0.129,0.318,0.25,0.488,0.36c2.593,1.852,6.5,1.463,9.371,0.556c3.241-1.019,8.704-5.945,9.148-6.353
			c2.809,3.141,5.828,6.086,9.038,8.815c1.852,1.593,3.704,3.148,5.723,4.686l-2.019-1.13c-3.704-1.593-11.798-2.481-14.816,0.927
			c-1.877,2.257-1.569,5.607,0.688,7.484c0.159,0.133,0.325,0.255,0.498,0.367c2.593,1.853,6.5,1.482,9.371,0.574
			c2.87-0.907,7.667-5.037,8.908-6.148l2.241,1.76c3.703,2.759,7.26,5.556,10.741,8.334c1.223,0.981,2.389,2,3.556,3.019
			c-0.87-0.5-1.63-0.926-1.741-0.963c-3.703-1.593-11.797-2.5-14.815,0.907c-1.879,2.269-1.563,5.631,0.705,7.51
			c0.147,0.123,0.302,0.237,0.462,0.343c2.611,1.852,6.519,1.481,9.39,0.574c2.87-0.907,7.186-4.63,8.667-5.945
			c1.186,1.074,2.352,2.167,3.444,3.26c0.723,0.76,1.464,1.444,2.148,2.26l2.074,2.333c1.26,1.537,2.574,3.111,3.704,4.63
			c0.834,1.056,1.611,2.074,2.39,3.111c-1.204-1-3.611-2.907-3.834-3.056c-3.408-2.13-11.278-4.241-14.724-1.333
			c-2.199,1.99-2.368,5.387-0.377,7.586c0.119,0.132,0.245,0.258,0.377,0.378c2.278,2.203,6.204,2.444,9.26,1.981
			c3.278-0.519,9.261-4.371,9.927-4.871c1.297,1.704,2.537,3.39,3.704,4.982c4.001,5.556,7.112,10.26,9.26,13.593l0.223,0.353
			l2.76-1.353c-0.148-0.203-0.278-0.426-0.444-0.647c-2.223-3.334-5.464-8.057-9.612-13.538c-1.314-1.741-2.741-3.575-4.241-5.427
			c1.537-1.685,2.972-3.459,4.297-5.315c3.468,0.917,7.044,1.353,10.631,1.297c0.129,2.13,0.259,4.204,0.333,6.167
			c0.277,6.815,0.259,12.482,0.185,16.445v0.464l3.038-1.464c0-3.944-0.148-9.26-0.556-15.575c-0.13-2.167-0.315-4.481-0.537-6.853
			c0.852-0.222,7.723-1.981,10.315-4.056s4.815-4.927,4.741-8.111c0.015-2.956-2.369-5.365-5.325-5.38
			c-0.188-0.001-0.377,0.008-0.564,0.027c-4.463,0.574-8.223,7.797-8.964,11.76c0,0.241-0.222,2.815-0.314,4.464
			c-0.093-0.981-0.186-1.853-0.277-2.908c-0.204-1.981-0.464-3.944-0.723-6.056l-0.5-3.074c-0.148-1.037-0.444-2.111-0.648-3.167
			c-0.537-2.444-1.223-4.908-1.852-7.408c1.722-0.186,7.853-0.907,10.482-2.407s5.556-4.148,5.907-7.297
			c0.475-2.907-1.498-5.648-4.405-6.123c-0.197-0.032-0.396-0.053-0.595-0.063c-4.519-0.111-9.26,6.463-10.649,10.26
			c0,0.241-0.722,3.074-1.056,4.648c-0.444-1.481-0.889-2.963-1.389-4.444c-1.463-4.26-3.056-8.538-4.648-12.816
			c-0.481-1.296-0.944-2.611-1.426-3.926c0.61,0,7.926-0.76,10.853-2.445c2.611-1.5,5.556-4.13,5.926-7.297
			c0.465-2.919-1.525-5.662-4.444-6.127c-0.185-0.028-0.369-0.049-0.556-0.059c-4.519-0.111-9.26,6.464-10.649,10.261
			c-0.11,0.296-1.037,4.389-1.222,5.426c-1.037-2.87-2.037-5.76-2.927-8.648c-1.21-3.886-2.168-7.845-2.87-11.854
			c0.296,0,7.908-0.722,10.927-2.463c2.611-1.5,5.556-4.13,5.908-7.297c0.474-2.907-1.499-5.648-4.406-6.122
			c-0.196-0.032-0.396-0.054-0.595-0.063c-4.5-0.111-9.26,6.464-10.648,10.278c0,0.241-0.778,3.353-1.093,4.834h-0.26
			c-0.58-4.06-0.809-8.161-0.685-12.26c0-2.241,0.222-4.408,0.444-6.501c1.426,0,7.981,0,10.853-1.241
			c2.87-1.24,5.944-3.5,6.686-6.593c0.777-2.862-0.914-5.813-3.776-6.591c-0.171-0.046-0.345-0.084-0.521-0.113
			c-4.463-0.611-9.964,5.408-11.704,9.038c-0.093,0.203-0.834,2.314-1.353,3.87c0.111-0.944,0.204-1.852,0.334-2.814
			c0.463-3.39,1.092-6.464,1.666-9.168c0.334-1.556,0.686-2.944,1-4.223c1.427-0.722,7.075-3.704,9.02-6.093
			c1.944-2.39,3.704-5.853,2.89-8.945c-0.61-2.893-3.45-4.742-6.342-4.133C620.303,448.486,620.176,448.519,620.05,448.555z"/>
		<path fill="#FFFFFF" d="M538.432,518.152c3.538-0.147,10.594-3.704,10.594-3.704s-3.797-3.907-4.074-4.13
			c-3.148-2.519-10.724-5.556-14.482-3.019c-2.408,1.697-2.984,5.024-1.287,7.433c0.111,0.159,0.232,0.312,0.36,0.457
			C531.524,517.578,535.432,518.264,538.432,518.152z"/>
	</g>
	<path fill="#92E3A9" d="M579.676,606.493c0,0,21.391-51.615,33.336-49.375c11.945,2.241-20.538,82.285-20.538,82.285
		s37.669-71.062,63.356-71.062s-9.427,78.543-41.947,104.712c0,0,51.355-55.338,81.321-43.374
		c29.965,11.964-59.968,68.062-59.968,68.062s52.227-16.465,46.3-3.704c-5.927,12.76-22.224,14.945-22.224,14.945l59.06,3.001
		H512.855l46.301-4.482c0,0-48.004-23.983-35.17-33.706c12.834-9.724,41.096,11.223,41.096,11.223s-48.8-53.856-39.392-74.08
		s51.374,36.651,51.374,36.651s-34.243-72.543-27.391-85.192C556.526,549.748,579.676,606.493,579.676,606.493z"/>
	<path opacity="0.4" fill="#FFFFFF" enable-background="new    " d="M579.676,606.493c0,0,21.391-51.615,33.336-49.375
		c11.945,2.241-20.538,82.285-20.538,82.285s37.669-71.062,63.356-71.062s-9.427,78.543-41.947,104.712
		c0,0,51.355-55.338,81.321-43.374c29.965,11.964-59.968,68.062-59.968,68.062s52.227-16.465,46.3-3.704
		c-5.927,12.76-22.224,14.945-22.224,14.945l59.06,3.001H512.855l46.301-4.482c0,0-48.004-23.983-35.17-33.706
		c12.834-9.724,41.096,11.223,41.096,11.223s-48.8-53.856-39.392-74.08s51.374,36.651,51.374,36.651s-34.243-72.543-27.391-85.192
		C556.526,549.748,579.676,606.493,579.676,606.493z"/>
	<path fill="none" stroke="#263238" stroke-linecap="round" stroke-linejoin="round" d="M572.786,609.308
		c18.835,55.561,18.835,95.026,18.835,95.026s-22.224,0.853-45.374-16.261"/>
	<path fill="none" stroke="#263238" stroke-linecap="round" stroke-linejoin="round" d="M582.194,639.181
		c3.876-16.638,9.028-32.953,15.409-48.8"/>
	<path fill="none" stroke="#263238" stroke-linecap="round" stroke-linejoin="round" d="M637.848,606.642l-47.948,71.061
		c0,0-32.447-27.391-43.56-42.818"/>
	<path fill="none" stroke="#263238" stroke-linecap="round" stroke-linejoin="round" d="M590.788,694.814
		c0,0,50.522-23.965,71.062-37.669"/>
</g>
<g id="freepik--Character--inject-47">
	<path fill="#263238" stroke="#263238" stroke-linecap="round" stroke-linejoin="round" d="M253.816,502.226v32.095
		c0,0,5.13,48.948,13.427,95.989l-45.522,95.378l10.482,0.63c0,0,70.191-86.748,72.654-96.008c2.464-9.26-1.648-79.321-1.648-79.321
		l71.599,43.207l30.873,108.657l10.501-4.315c0,0-10.705-116.361-12.964-119.157c-34.354-42.355-82.729-70.376-82.729-70.376
		l-9.871-17.891L253.816,502.226z"/>
	
		<line fill="none" stroke="#FFFFFF" stroke-width="0.5" stroke-linecap="round" stroke-linejoin="round" x1="304.432" y1="552.581" x2="308.932" y2="528.876"/>
	
		<line fill="none" stroke="#FFFFFF" stroke-width="0.5" stroke-linecap="round" stroke-linejoin="round" x1="305.654" y1="547.674" x2="316.284" y2="523.968"/>
	<path fill="#FFFFFF" stroke="#263238" stroke-linecap="round" stroke-linejoin="round" d="M340.046,399.865
		c0,0-2.5,13.668,1.111,16.798s16.445,5.13,17.908-1.093c1.464-6.223-10.611-67.968-12.075-74.191
		c-1.463-6.223-5.833-2.556-7.297-0.722C338.23,342.49,340.046,399.865,340.046,399.865z"/>
	<path fill="#FFFFFF" stroke="#263238" stroke-linecap="round" stroke-linejoin="round" d="M276.281,377.215
		c0,0-40.151,16.187-52.56,21.706c-12.409,5.519-5.815,17.909-3.963,22.224c1.852,4.315,31.632,81.488,32.373,82.877
		c0.741,1.39,5.556,4.741,12.445,4.723c6.89-0.019,47.115-9.982,48.559-14.815c1.445-4.834-1.129-12.428-1.129-12.428
		l-21.002-64.264c0,0,51.189,2.778,53.708,2.407c2.519-0.37,9.111-8.426,1.407-16.075s-55.967-20.687-58.523-22.872
		C285.042,378.512,280.67,375.734,276.281,377.215z"/>
	<path fill="#263238" d="M254.021,402.588l10.593,9.538l12.723,71.024l13.779,9.538l2.648-20.668l-25.928-61.487v-11.112
		c0-2.648,1.056-9.02-5.834-12.186C255.113,384.068,245.538,388.809,254.021,402.588z"/>
	<path fill="#FFFFFF" stroke="#263238" stroke-linecap="round" stroke-linejoin="round" d="M338.916,391.809
		c0,0-6.574,0-8.76,13.538s1.093,16.076,4.741,16.797c3.648,0.723,12.057,3.704,16.445-0.722c4.39-4.427,4.76-14.261,2.204-21.928
		c-1.866-6.136-8.354-9.597-14.489-7.73C339.011,391.779,338.963,391.794,338.916,391.809z"/>
	<polygon fill="#FFFFFF" stroke="#263238" stroke-linecap="round" stroke-linejoin="round" points="261.836,377.567 
		278.282,398.032 266.966,391.809 262.928,402.421 	"/>
	<polygon fill="#FFFFFF" stroke="#263238" stroke-linecap="round" stroke-linejoin="round" points="264.762,366.604 
		262.577,403.884 246.853,387.068 243.205,364.048 	"/>
	<polygon fill="#FFFFFF" stroke="#263238" stroke-linecap="round" stroke-linejoin="round" points="241.001,377.197 
		259.854,394.624 255.076,409.996 237.723,389.994 	"/>
	<path fill="#263238" stroke="#263238" stroke-linecap="round" stroke-linejoin="round" d="M410.199,492.392
		c-25.282,0.09-50.014-7.393-71.006-21.483c-26.548-17.475-44.526-45.307-49.541-76.691
		c-10.001-63.728,36.744-124.177,104.341-134.937l62.506-11.983l6.5,46.467l-60.709,10.908l-0.666,0.13
		c-42.597,6.648-72.229,43.541-66.153,82.266c6.074,38.725,45.484,64.654,87.896,58.208l63.709-12.131l8.667,45.3l-64.228,12.205
		l-0.74,0.13C423.969,491.846,417.09,492.385,410.199,492.392z"/>
	<path fill="#92E3A9" stroke="#263238" stroke-linecap="round" stroke-linejoin="round" d="M408.773,487.409
		c-25.283,0.091-50.014-7.392-71.006-21.483c-26.548-17.475-44.526-45.306-49.541-76.691
		c-10.038-63.728,36.744-124.195,104.342-134.937l62.505-11.982l6.408,46.467l-60.709,10.908c-0.219,0.055-0.441,0.092-0.666,0.111
		c-42.597,6.648-72.229,43.559-66.136,82.284c6.094,38.726,45.467,64.653,87.896,58.208l63.857-12.13l8.76,45.3l-64.265,12.205
		l-0.741,0.129C422.629,486.871,415.707,487.409,408.773,487.409z"/>
	<path fill="#92E3A9" stroke="#263238" stroke-linecap="round" stroke-linejoin="round" d="M398.995,481.52
		c-20.79-1.57-40.815-8.514-58.116-20.149c-11.719-7.844-21.854-17.828-29.873-29.428"/>
	<path fill="#92E3A9" stroke="#263238" stroke-linecap="round" stroke-linejoin="round" d="M414.552,481.705
		c-1.853,0-3.853,0.148-5.778,0.148"/>
	<path fill="none" stroke="#263238" stroke-linecap="round" stroke-linejoin="round" d="M370.771,303.821
		c-11.283,5.948-21.072,14.376-28.632,24.65c-11.653,15.599-16.575,35.214-13.668,54.467c3.704,23.15,18.224,42.318,38.614,53.43"/>
	<path fill="none" stroke="#263238" stroke-linecap="round" stroke-linejoin="round" d="M307.599,317.248
		c18.642-30.96,50.107-52.005,85.84-57.412l56.931-10.908l4.871,35.374l-56.005,10.056c-4.989,0.792-9.907,1.988-14.704,3.574"/>
	<path fill="none" stroke="#263238" stroke-linecap="round" stroke-linejoin="round" d="M300.432,331.675
		c1.111-2.704,2.346-5.358,3.704-7.964"/>
	<polygon fill="#FFFFFF" stroke="#263238" stroke-linecap="round" stroke-linejoin="round" points="413.403,297.431 
		461.481,288.782 455.073,242.315 406.236,251.687 	"/>
	<polygon fill="#FFFFFF" stroke="#263238" stroke-linecap="round" stroke-linejoin="round" points="494.392,473.464 
		485.724,428.164 435.35,437.72 442.479,483.316 	"/>
	<path fill="#FFFFFF" stroke="#263238" stroke-linecap="round" stroke-linejoin="round" d="M266.447,471.038
		c0,0,67.506,3.889,70.839,3.333c3.334-0.556,13.779-11.723,16.409-12.964s7.926,2.611,11.111,3.871
		c3.186,1.259,5.871-0.427,6.112,2.147c0.24,2.575-1.648,3.575-5.297,3.39s-5.834-0.686-7.649-0.778
		c-1.814-0.092,3.815,3.871,8.705,8.52c4.889,4.648,8.815,6.315,7.611,8.445s-4.111,1.611-5.871,0
		c-1.759-1.611-6.852-1.853-10.871-2.037c-4.019-0.186-10.797-3.481-10.797-3.481c-9.383,2.211-18.879,3.911-28.447,5.093
		c-20.649,2.944-49.781,7.278-57.8,6.481c-8.019-0.796-13.297-11.667-13.297-11.667L266.447,471.038z"/>
	<path fill="#FFFFFF" stroke="#263238" stroke-linecap="round" stroke-linejoin="round" d="M223.722,398.921
		c0,0-10.853,4.223-13.779,10.445s0.37,16.445,4.741,24.483c4.371,8.037,31.077,50.004,31.077,50.004l16.076-14.612
		c0,0-14.612-46.041-16.446-50.004"/>
	<path fill="none" stroke="#263238" stroke-linecap="round" stroke-linejoin="round" d="M227.796,414.107
		c4.281-0.314,8.504,1.138,11.686,4.019"/>
	<path fill="none" stroke="#263238" stroke-linecap="round" stroke-linejoin="round" d="M243.557,410.829
		c0,0,5.556,1.093,7.408,13.149"/>
	<path fill="#FFFFFF" stroke="#263238" stroke-linecap="round" stroke-linejoin="round" d="M258.188,457.24
		c0,0-11.334,5.111-17.539,12.057s-5.556,9.13-1.463,13.52c4.093,4.39,6.574,6.574,9.13,4.76
		c2.556-1.815,19.742-13.168,20.835-16.094c1.092-2.927-2.556-13.872-5.112-14.983C262.067,455.969,259.965,456.234,258.188,457.24z
		"/>
	<path fill="#FFFFFF" stroke="#263238" stroke-linecap="round" stroke-linejoin="round" d="M346.99,341.379
		c0,0,11.335-10.593,12.798-15.723c1.463-5.13-1.853-13.149-2.926-13.52c-1.074-0.371-2.186,1.852-2.186,4.759
		c0,0-3.297-4.019-3.704-1.092c-0.209,1.696-0.327,3.402-0.352,5.111c0,0-3.297-3.704-4.02-1.093
		c-0.363,1.621,0.2,3.311,1.463,4.389c0,0-4.759-3.704-4.759-1.111c0.163,1.79,0.935,3.469,2.185,4.759
		c0,0-6.204,8.408-5.833,12.797c-0.074,2.308,1.712,4.251,4.019,4.371"/>
	<path fill="none" stroke="#263238" stroke-linecap="round" stroke-linejoin="round" d="M348.176,324.211
		c0,0,2.556,2.556,2.186,4.741"/>
	<path fill="none" stroke="#263238" stroke-linecap="round" stroke-linejoin="round" d="M350.658,320.915
		c0,0,2.926,4.019,2.926,6.575"/>
	<path fill="none" stroke="#263238" stroke-linecap="round" stroke-linejoin="round" d="M354.677,316.896
		c1.631,2.255,2.64,4.899,2.926,7.667"/>
	<path fill="#FFFFFF" stroke="#263238" stroke-linecap="round" stroke-linejoin="round" d="M232.204,726.317
		c0,0,14.816,14.187,19.15,18.52c4.333,4.334,9.871,6.778,5.556,6.778c-4.315,0-13.594,1.241-22.224-1.222
		s-15.446-9.89-18.52-13.594s5.556-11.112,5.556-11.112L232.204,726.317z"/>
	<path fill="#FFFFFF" stroke="#263238" stroke-linecap="round" stroke-linejoin="round" d="M255.243,748.208
		c-7.835,1.002-15.793,0.372-23.372-1.852c-5.778-1.853-12.668-11.112-15.279-14.816c-1.093,1.852-1.593,3.704-0.426,5.167
		c3.074,3.704,9.871,11.112,18.52,13.594s17.89,1.223,22.224,1.223C259.947,751.615,258.095,750.394,255.243,748.208z"/>
	<path fill="#FFFFFF" stroke="#263238" stroke-linecap="round" stroke-linejoin="round" d="M416.182,698.537
		c0,0,33.336,14.187,35.799,14.816s2.963,4.556-8.537,4.556c-4.945,0-23.576,1.223-27.892,1.223s-9.26,0.389-10.482-2.074
		s0.611-14.205,0.611-14.205L416.182,698.537z"/>
	<path fill="#FFFFFF" stroke="#263238" stroke-linecap="round" stroke-linejoin="round" d="M451.98,713.354h-0.093
		c-14.334,2.111-40.114,1.759-47.207,1.611c-0.007,0.728,0.125,1.45,0.389,2.13c1.223,2.463,6.148,2.074,10.482,2.074
		s22.946-1.223,27.892-1.223C454.943,717.909,454.443,713.965,451.98,713.354z"/>
	<polygon fill="#FFFFFF" stroke="#263238" stroke-linecap="round" stroke-linejoin="round" points="259.854,394.624 
		262.577,403.884 257.206,402.051 	"/>
	<path fill="#FFFFFF" stroke="#263238" stroke-linecap="round" stroke-linejoin="round" d="M264.04,315.433
		c0,0-2.204-6.575-11.334-7.315s-25.595,12.427-27.058,21.576c-1.463,9.149,12.075,33.614,16.094,37.262
		c4.019,3.648,38.003,2.574,39.096-2.185C281.93,360.01,271.336,329.323,264.04,315.433z"/>
	<path fill="none" stroke="#263238" stroke-linecap="round" stroke-linejoin="round" d="M263.299,337.73
		c0,0,3.704,4.741,5.853,5.112c2.148,0.371,5.556-0.371,3.704,1.852c-1.852,2.222-8.038,3.704-8.038,3.704"/>
	<path fill="none" stroke="#263238" stroke-linecap="round" stroke-linejoin="round" d="M264.836,354.528
		c0,0-8.038,1.852-11.686-4.019"/>
	
		<line fill="none" stroke="#263238" stroke-linecap="round" stroke-linejoin="round" x1="254.539" y1="349.046" x2="251.242" y2="351.973"/>
	<path fill="none" stroke="#263238" stroke-linecap="round" stroke-linejoin="round" d="M253.076,341.379
		c1.389-1.088,3.012-1.836,4.741-2.185"/>
	<path fill="none" stroke="#263238" stroke-linecap="round" stroke-linejoin="round" d="M247.594,335.527
		c0,0,2.186-3.278,9.13-1.852"/>
	<path fill="none" stroke="#263238" stroke-linecap="round" stroke-linejoin="round" d="M259.28,329.656c0,0-0.37-5.556,4.76-5.13"
		/>
	<path fill="#263238" d="M268.318,334.712c0.593,1.296,0.611,2.537,0,2.796c-0.611,0.259-1.463-0.611-2.056-1.852
		c-0.593-1.241-0.593-2.537,0-2.778C266.854,332.638,267.744,333.36,268.318,334.712z"/>
	<path fill="#263238" stroke="#263238" stroke-linecap="round" stroke-linejoin="round" d="M234.796,351.25
		c0,0,5.556-1.463,5.556-4.389c0-2.926-2.204-3.704-1.463-5.853c0.741-2.148,5.852-5.111,4.389-8.408
		c-1.463-3.296-8.779-3.278-8.038-5.833c0.741-2.556,25.206-8.779,27.039-16.446c1.833-7.667-6.223-17.187-12.427-16.816
		c-6.205,0.371-2.926,8.038-2.926,8.038s-18.279-5.556-21.928,1.463s3.296,10.241,3.296,10.241s-12.797,5.834-13.89,14.612
		c-1.093,8.779,14.242,25.576,17.538,26.669C235.241,355.621,234.796,351.25,234.796,351.25z"/>
	<path fill="none" stroke="#FFFFFF" stroke-width="0.5" stroke-linecap="round" stroke-linejoin="round" d="M233.352,327.434
		c0,0-10.482,7.241-11.927,12.964"/>
	<path fill="none" stroke="#FFFFFF" stroke-width="0.5" stroke-linecap="round" stroke-linejoin="round" d="M241.39,331.045
		c0,0-12.964,5.797-17.001,14.112"/>
	<path fill="#FFFFFF" stroke="#263238" stroke-linecap="round" stroke-linejoin="round" d="M237.723,353.436
		c0,0-2.204-5.111-6.223-4.741c-4.019,0.371-2.926,6.205,1.093,10.964c4.019,4.76,8.778,1.463,9.149,0.371"/>
</g>
<g id="enveloppe">
	
		<rect x="560.119" y="334.082" fill="#FFFFFF" stroke="#263238" stroke-linecap="round" stroke-linejoin="round" width="49.893" height="32.799"/>
	<polyline fill="none" stroke="#263238" stroke-linecap="round" stroke-linejoin="round" points="560.119,334.082 585.065,350.473 
		610.012,334.082 	"/>
	
		<rect x="662.673" y="261.827" transform="matrix(-0.9688 -0.248 0.248 -0.9688 1284.7544 718.2961)" fill="#FFFFFF" stroke="#263238" stroke-linecap="round" stroke-linejoin="round" width="49.894" height="32.799"/>
	<polyline fill="none" stroke="#263238" stroke-linecap="round" stroke-linejoin="round" points="667.498,256.187 687.592,278.263 
		715.835,268.559 	"/>
	
		<rect x="634.308" y="429.74" transform="matrix(-0.9688 -0.248 0.248 -0.9688 1187.2644 1041.8438)" fill="#FFFFFF" stroke="#263238" stroke-linecap="round" stroke-linejoin="round" width="49.893" height="32.799"/>
	<polyline fill="none" stroke="#263238" stroke-linecap="round" stroke-linejoin="round" points="639.088,424.108 659.201,446.184 
		687.426,436.479 	"/>
	
		<rect x="687.438" y="317.529" transform="matrix(-0.9688 -0.248 0.248 -0.9688 1319.6941 834.1032)" fill="#FFFFFF" stroke="#263238" stroke-linecap="round" stroke-linejoin="round" width="49.893" height="32.799"/>
	<polyline fill="none" stroke="#263238" stroke-linecap="round" stroke-linejoin="round" points="692.259,311.896 712.354,333.971 
		740.597,324.285 	"/>
	
		<rect x="641.657" y="355.897" transform="matrix(-0.6401 -0.7683 0.7683 -0.6401 807.2676 1122.7485)" fill="#FFFFFF" stroke="#263238" stroke-linecap="round" stroke-linejoin="round" width="49.893" height="32.799"/>
	<polyline fill="none" stroke="#263238" stroke-linecap="round" stroke-linejoin="round" points="663.238,342.62 666.609,372.289 
		695.186,380.957 	"/>
	
		<rect x="704.613" y="237.359" transform="matrix(-0.6401 -0.7683 0.7683 -0.6401 1001.6089 976.6968)" fill="#FFFFFF" stroke="#263238" stroke-linecap="round" stroke-linejoin="round" width="49.893" height="32.799"/>
	<polyline fill="none" stroke="#263238" stroke-linecap="round" stroke-linejoin="round" points="726.206,224.092 729.577,253.761 
		758.153,262.428 	"/>
	
		<rect x="694.909" y="383.598" transform="matrix(-0.8048 0.5935 -0.5935 -0.8048 1536.2844 294.5599)" fill="#FFFFFF" stroke="#263238" stroke-linecap="round" stroke-linejoin="round" width="49.595" height="32.603"/>
	<polyline fill="none" stroke="#263238" stroke-linecap="round" stroke-linejoin="round" points="694.833,401.051 724.632,399.458 
		735.003,371.456 	"/>
	
		<rect x="439.275" y="226.611" fill="#FFFFFF" stroke="#263238" stroke-linecap="round" stroke-linejoin="round" width="49.894" height="32.799"/>
	<polyline fill="none" stroke="#263238" stroke-linecap="round" stroke-linejoin="round" points="439.275,226.611 464.223,243.001 
		489.169,226.611 	"/>
	
		<rect x="482.991" y="230.172" transform="matrix(-0.7242 -0.6896 0.6896 -0.7242 705.7367 775.4142)" fill="#FFFFFF" stroke="#263238" stroke-linecap="round" stroke-linejoin="round" width="49.894" height="32.799"/>
	<polyline fill="none" stroke="#263238" stroke-linecap="round" stroke-linejoin="round" points="501.151,217.499 507.911,246.575 
		537.283,251.909 	"/>
	
		<rect x="626.979" y="212.776" transform="matrix(-0.9054 0.4245 -0.4245 -0.9054 1339.4813 159.9231)" fill="#FFFFFF" stroke="#263238" stroke-linecap="round" stroke-linejoin="round" width="49.893" height="32.799"/>
	<polyline fill="none" stroke="#263238" stroke-linecap="round" stroke-linejoin="round" points="622.383,224.962 651.923,229.222 
		667.554,203.794 	"/>
	
		<rect x="552.072" y="226.185" transform="matrix(0.2416 -0.9704 0.9704 0.2416 202.2172 743.9043)" fill="#FFFFFF" stroke="#263238" stroke-linecap="round" stroke-linejoin="round" width="49.893" height="32.799"/>
	<polyline fill="none" stroke="#263238" stroke-linecap="round" stroke-linejoin="round" points="598.974,222.351 577.027,242.594 
		586.917,270.762 	"/>
	
		<rect x="441.939" y="415.652" transform="matrix(-0.8208 0.5713 -0.5713 -0.8208 1096.9077 519.9343)" fill="#FFFFFF" stroke="#263238" stroke-linecap="round" stroke-linejoin="round" width="49.894" height="32.799"/>
	<polyline fill="none" stroke="#263238" stroke-linecap="round" stroke-linejoin="round" points="437.054,432.813 466.89,432.016 
		478.001,404.31 	"/>
	
		<rect x="502.537" y="422.262" transform="matrix(-0.8211 0.5708 -0.5708 -0.8211 1210.9053 497.7701)" fill="#FFFFFF" stroke="#263238" stroke-linecap="round" stroke-linejoin="round" width="49.826" height="32.755"/>
	<polyline fill="none" stroke="#263238" stroke-linecap="round" stroke-linejoin="round" points="498.577,439.054 528.413,438.257 
		539.524,410.551 	"/>
	
		<rect x="439.734" y="258.3" transform="matrix(-0.8895 -0.4569 0.4569 -0.8895 752.4905 731.3763)" fill="#FFFFFF" stroke="#263238" stroke-linecap="round" stroke-linejoin="round" width="49.893" height="32.799"/>
	<polyline fill="none" stroke="#263238" stroke-linecap="round" stroke-linejoin="round" points="449.999,248.705 464.704,274.688 
		494.373,271.503 	"/>
	
		<rect x="459.373" y="448.209" transform="matrix(-0.8895 -0.4569 0.4569 -0.8895 702.8194 1099.1816)" fill="#FFFFFF" stroke="#263238" stroke-linecap="round" stroke-linejoin="round" width="49.892" height="32.799"/>
	<polyline fill="none" stroke="#263238" stroke-linecap="round" stroke-linejoin="round" points="469.611,438.609 484.316,464.611 
		514.004,461.426 	"/>
</g>
</svg>
